# xmcd CD database file
#
# Track frame offsets:
#	150
#	22510
#	42520
#	61965
#	79730
#	94995
#	109987
#	125322
#	142382
#	159620
#
# Disc length: 2323 seconds
#
# Revision: 0
# Processed by: cddbd v1.5.1PL2 Copyright (c) Steve Scherf et al.
# Submitted via: CDex 1.50
#
DISCID=8509110a
DTITLE=スーパー戦隊 - スーパー戦隊オープニングDisk1
DYEAR=2005
DGENRE=アニメ
TTITLE0=魔法戦隊マジレンジャー
TTITLE1=特捜戦隊デカレンジャー
TTITLE2=爆竜戦隊アバレンジャー
TTITLE3=ハリケンジャー参上！
TTITLE4=ガオレンジャー吼えろ！！
TTITLE5=JIKU〜未来戦隊タイムレンジャー〜
TTITLE6=救急戦隊ゴーゴーファイブ
TTITLE7=星獣戦隊ギンガマン
TTITLE8=オーレ！オーレンジャー
TTITLE9=鳥人戦隊ジェットマン
EXTD=YEAR: 2005
EXTT0=
EXTT1=
EXTT2=
EXTT3=
EXTT4=
EXTT5=
EXTT6=
EXTT7=
EXTT8=
EXTT9=
PLAYORDER=
